<svg width="620" height="620" viewBox="0 0 620 620" fill="none" xmlns="http://www.w3.org/2000/svg">
<g clip-path="url(#clip0_558_263)">
<path d="M409 354.205L359 267.603L459 267.603L409 354.205Z" fill="#A8DADC"/>
<path d="M309 354.205L259 267.603L359 267.603L309 354.205Z" fill="#457B9D"/>
<path d="M209 354.205L159 267.603L259 267.603L209 354.205Z" fill="#A8DADC"/>
<path d="M409 181L359 267.603L459 267.603L409 181Z" fill="#A8DADC"/>
<path d="M309 181L259 267.603L359 267.603L309 181Z" fill="#457B9D"/>
<path d="M209 181L159 267.603L259 267.603L209 181Z" fill="#A8DADC"/>
<path d="M509 528.205L459 441.603L559 441.603L509 528.205Z" fill="#1D3557"/>
<path d="M409 528.205L359 441.603L459 441.603L409 528.205Z" fill="#457B9D"/>
<path d="M309 528.205L259 441.603L359 441.603L309 528.205Z" fill="#E03131"/>
<path d="M209 528.205L159 441.603L259 441.603L209 528.205Z" fill="#457B9D"/>
<path d="M109 528.205L59 441.603L159 441.603L109 528.205Z" fill="#1D3557"/>
<path d="M509 355L459 441.603L559 441.603L509 355Z" fill="#1D3557"/>
<path d="M409 355L359 441.603L459 441.603L409 355Z" fill="#457B9D"/>
<path d="M309 355L259 441.603L359 441.603L309 355Z" fill="#E03131"/>
<path d="M209 355L159 441.603L259 441.603L209 355Z" fill="#457B9D"/>
<path d="M109 355L59 441.603L159 441.603L109 355Z" fill="#1D3557"/>
<path d="M309 180.205L259 93.6025L359 93.6025L309 180.205Z" fill="#E03131"/>
<path d="M309 7L259 93.6025L359 93.6025L309 7Z" fill="#E03131"/>
<path d="M459 615.205L409 528.603L509 528.603L459 615.205Z" fill="#1D3557"/>
<path d="M159 615.205L109 528.603L209 528.603L159 615.205Z" fill="#1D3557"/>
<path d="M559 442L509 528.603L609 528.603L559 442Z" fill="#1D3557"/>
<path d="M459 442L409 528.603L509 528.603L459 442Z" fill="#1D3557"/>
<path d="M159 442L109 528.603L209 528.603L159 442Z" fill="#1D3557"/>
<path d="M59 442L8.99999 528.603L109 528.603L59 442Z" fill="#1D3557"/>
<path d="M359 267.205L309 180.603L409 180.603L359 267.205Z" fill="#A8DADC"/>
<path d="M259 267.205L209 180.603L309 180.603L259 267.205Z" fill="#A8DADC"/>
<path d="M359 94L309 180.603L409 180.603L359 94Z" fill="#A8DADC"/>
<path d="M259 94L209 180.603L309 180.603L259 94Z" fill="#A8DADC"/>
<path d="M459 441.205L409 354.603L509 354.603L459 441.205Z" fill="#457B9D"/>
<path d="M359 441.205L309 354.603L409 354.603L359 441.205Z" fill="#457B9D"/>
<path d="M259 441.205L209 354.603L309 354.603L259 441.205Z" fill="#457B9D"/>
<path d="M159 441.205L109 354.603L209 354.603L159 441.205Z" fill="#457B9D"/>
<path d="M459 268L409 354.603L509 354.603L459 268Z" fill="#457B9D"/>
<path d="M359 268L309 354.603L409 354.603L359 268Z" fill="#457B9D"/>
<path d="M259 268L209 354.603L309 354.603L259 268Z" fill="#457B9D"/>
<path d="M159 268L109 354.603L209 354.603L159 268Z" fill="#457B9D"/>
</g>
<defs>
<clipPath id="clip0_558_263">
<rect width="620" height="620" fill="white" transform="translate(620 620) rotate(-180)"/>
</clipPath>
</defs>
</svg>
