<svg viewBox="0 0 100 100" fill="none" xmlns="http://www.w3.org/2000/svg">
  <style>
    .icon-part {
      mix-blend-mode:multiply;
    }
    .red-line{
      fill:#FA5252;
    }
     .blue-line{
      fill:#4DABF7;
    }
     @media (prefers-color-scheme: dark) {
       .icon-part {
      mix-blend-mode:screen;
    }
    }
  </style>

  <g class="icon-part blue-line">
    <path class="red-line" fill-rule="evenodd" clip-rule="evenodd" d="M90 19C90 26.1797 84.1797 32 77 32L24 32C16.8203 32 11 26.1797 11 19C11 11.8203 16.8203 5.99999 24 5.99999L77 6C84.1797 6 90 11.8203 90 19Z" fill="#FA5252" />
  </g>
  <g class="icon-part ">
    <path class="blue-line" fill-rule="evenodd" clip-rule="evenodd" d="M11 19C11 11.8203 16.8203 6 24 6C29.8111 6 39.5372 6.5798 48.027 12.1032C57.609 18.3373 63 29.0188 63 43.5V81C63 88.1797 57.1797 94 50 94C42.8203 94 37 88.1797 37 81V43.5C37 39.5089 36.2977 37.2584 35.7214 36.0723C35.1907 34.9802 34.569 34.3658 33.848 33.8968C31.9628 32.6702 28.6889 32 24 32C16.8203 32 11 26.1797 11 19Z" fill="#4DABF7" />
  </g>
</svg>